HIERARCHY
ROOT Hips
{
 OFFSET 0.000000 0.000000 0.000000
 CHANNELS 6 Xposition Yposition Zposition Yrotation Xrotation Zrotation
 JOINT Chest
 {
  OFFSET 0.000000 9.585900 0.002600
  CHANNELS 3 Yrotation Xrotation Zrotation
  JOINT Chest2
  {
   OFFSET 0.000000 9.601200 -0.005300
   CHANNELS 3 Yrotation Xrotation Zrotation
   JOINT Chest3
   {
    OFFSET 0.000000 9.561800 0.000000
    CHANNELS 3 Yrotation Xrotation Zrotation
    JOINT Chest4
    {
     OFFSET 0.000000 9.552100 0.000000
     CHANNELS 3 Yrotation Xrotation Zrotation
     JOINT Neck
     {
      OFFSET 0.000000 14.453000 0.000000
      CHANNELS 3 Yrotation Xrotation Zrotation
      JOINT Head
      {
       OFFSET 0.000000 8.936500 -0.011300
       CHANNELS 3 Yrotation Xrotation Zrotation
       End Site
       {
        OFFSET 0.000000 17.073600 -0.006000
       }
      }
     }
     JOINT RightCollar
     {
      OFFSET -2.921100 9.558500 0.000000
      CHANNELS 3 Yrotation Xrotation Zrotation
      JOINT RightShoulder
      {
       OFFSET -13.519700 0.000000 0.000000
       CHANNELS 3 Yrotation Xrotation Zrotation
       JOINT RightElbow
       {
        OFFSET 0.000000 -29.696600 0.000000
        CHANNELS 3 Yrotation Xrotation Zrotation
        JOINT RightWrist
        {
         OFFSET 0.000000 -24.004700 0.000000
         CHANNELS 3 Yrotation Xrotation Zrotation
         End Site
         {
          OFFSET 0.000000 -17.728500 0.000000
         }
        }
       }
      }
     }
     JOINT LeftCollar
     {
      OFFSET 2.921100 9.558500 0.000000
      CHANNELS 3 Yrotation Xrotation Zrotation
      JOINT LeftShoulder
      {
       OFFSET 13.519700 0.000000 0.000000
       CHANNELS 3 Yrotation Xrotation Zrotation
       JOINT LeftElbow
       {
        OFFSET 0.000000 -29.696600 0.000000
        CHANNELS 3 Yrotation Xrotation Zrotation
        JOINT LeftWrist
        {
         OFFSET 0.000000 -24.004700 0.000000
         CHANNELS 3 Yrotation Xrotation Zrotation
         End Site
         {
          OFFSET 0.000000 -17.728500 0.000000
         }
        }
       }
      }
     }
    }
   }
  }
 }
 JOINT RightHip
 {
  OFFSET -7.771700 -0.012900 -0.001300
  CHANNELS 3 Yrotation Xrotation Zrotation
  JOINT RightKnee
  {
   OFFSET 0.000000 -40.869800 0.001200
   CHANNELS 3 Yrotation Xrotation Zrotation
   JOINT RightAnkle
   {
    OFFSET 0.000000 -39.717900 0.002100
    CHANNELS 3 Yrotation Xrotation Zrotation
    JOINT RightToe
    {
     OFFSET 0.000000 -4.965400 11.033500
     CHANNELS 3 Yrotation Xrotation Zrotation
     End Site
     {
      OFFSET 0.000000 -1.423100 5.872300
     }
    }
   }
  }
 }
 JOINT LeftHip
 {
  OFFSET 7.771700 -0.012900 -0.001300
  CHANNELS 3 Yrotation Xrotation Zrotation
  JOINT LeftKnee
  {
   OFFSET 0.000000 -40.869800 0.001200
   CHANNELS 3 Yrotation Xrotation Zrotation
   JOINT LeftAnkle
   {
    OFFSET 0.000000 -39.717900 0.002100
    CHANNELS 3 Yrotation Xrotation Zrotation
    JOINT LeftToe
    {
     OFFSET 0.000000 -4.965400 11.033500
     CHANNELS 3 Yrotation Xrotation Zrotation
     End Site
     {
      OFFSET 0.000000 -1.423100 5.872300
     }
    }
   }
  }
 }
}
MOTION
Frames: 12
Frame Time: 0.008333
-16.266651 51.203617 26.704039 -174.776817 -35.160983 -10.610637 -0.363179 13.905852 2.909528 -0.301284 7.958343 1.689583 -0.361876 9.931119 2.085846 -0.307981 7.964514 1.682422 1.688731 18.635469 -1.607601 2.085261 -6.036224 -2.075136 0.466819 5.344542 -1.288918 -18.473774 -3.887357 7.584371 20.849744 -78.871120 -5.648364 11.390795 -5.185037 -15.975450 -8.500927 4.538359 -3.115747 4.820736 -0.823951 -2.326555 -78.013495 -76.726445 85.569846 13.214958 -12.419460 -1.855152 -14.352755 -34.960328 3.763533 5.535901 79.973283 0.582766 -1.111410 -9.722641 0.393660 -0.086666 -1.452002 1.861410 -12.987713 -44.277094 9.297483 175.565171 77.891471 170.551352 -2.486245 -19.329328 3.584296 0.007176 0.002851 0.002459
-16.256629 51.198692 26.701661 -174.800601 -35.117958 -10.608352 -0.346431 13.892221 2.931765 -0.294706 7.953195 1.697251 -0.331893 9.942583 2.120177 -0.321429 7.934078 1.666813 1.675830 18.627297 -1.629515 2.096183 -6.059461 -2.102875 0.469432 5.320593 -1.269071 -18.500474 -3.859487 7.551997 20.966326 -78.881672 -5.783371 11.409270 -5.218922 -15.969280 -8.497605 4.530154 -3.116721 4.813573 -0.840641 -2.333997 -78.066064 -76.706418 85.633290 13.228381 -12.400871 -1.862671 -14.181004 -34.813560 3.525970 6.072834 80.307483 1.034103 -1.257129 -9.484010 0.138479 -0.090655 -1.792419 1.911452 -12.990795 -44.321508 9.331587 175.648734 77.886149 170.645903 -2.474477 -19.332144 3.583074 0.004041 0.000500 -0.000795
-16.244736 51.193509 26.702171 -174.825332 -35.080225 -10.603540 -0.331456 13.883715 2.952632 -0.288822 7.941887 1.700252 -0.329966 9.932653 2.120532 -0.304731 7.942002 1.683207 1.649789 18.609444 -1.654992 2.124886 -6.068609 -2.129098 0.447154 5.298117 -1.280555 -18.504135 -3.852829 7.542402 21.007969 -78.875443 -5.841884 11.402660 -5.286512 -15.919301 -8.496517 4.514203 -3.112568 4.796972 -0.852243 -2.352730 -78.105465 -76.684025 85.689584 13.237936 -12.398330 -1.845271 -13.999312 -34.668333 3.287023 6.621837 80.624749 1.536515 -1.375179 -9.127765 -0.165361 -0.097876 -2.141768 1.960684 -12.993717 -44.361341 9.368779 175.715351 77.882928 170.720368 -2.472642 -19.333777 3.582754 0.003506 0.000068 -0.004361
-16.231594 51.188187 26.705538 -174.852432 -35.049398 -10.595995 -0.314291 13.865320 2.966927 -0.286187 7.932909 1.699230 -0.323556 9.936586 2.130932 -0.269488 7.973170 1.735323 1.620115 18.574026 -1.710235 2.128360 -6.079950 -2.156172 0.401854 5.252052 -1.325439 -18.512943 -3.835204 7.541086 20.591163 -78.845985 -5.469898 11.448993 -5.436243 -15.817031 -8.504651 4.484634 -3.111656 4.768266 -0.875459 -2.399953 -78.108325 -76.668827 85.705007 13.244564 -12.407870 -1.813967 -13.818121 -34.513255 3.043509 7.070160 80.915385 1.980065 -1.461965 -8.700979 -0.525517 -0.106846 -2.459511 2.010295 -12.975156 -44.397208 9.395634 175.772553 77.883003 170.794916 -2.474218 -19.334591 3.581529 0.001479 0.002124 -0.004723
-16.217605 51.182212 26.712658 -174.883554 -35.020271 -10.586396 -0.294788 13.847606 2.981465 -0.280943 7.948206 1.715030 -0.314427 9.936283 2.142760 -0.258747 7.985724 1.753655 1.608445 18.548830 -1.747781 2.128652 -6.093210 -2.184865 0.383145 5.210163 -1.341688 -18.524912 -3.831921 7.529998 20.113991 -78.841408 -5.012570 11.454864 -5.568293 -15.731329 -8.523244 4.442369 -3.130225 4.771472 -0.890977 -2.409358 -78.068575 -76.663291 85.672298 13.257244 -12.414952 -1.807465 -13.653983 -34.340584 2.803199 7.462813 81.167523 2.394984 -1.540984 -8.260322 -0.929455 -0.114445 -2.706195 2.053534 -12.930745 -44.436396 9.417128 175.836250 77.885314 170.886762 -2.488452 -19.329768 3.588006 0.001300 0.004189 -0.003103
-16.204059 51.175381 26.723714 -174.917989 -34.992613 -10.571248 -0.276106 13.851989 2.998499 -0.276442 7.966694 1.733657 -0.298134 9.946101 2.168213 -0.273186 7.938923 1.719105 1.622165 18.556554 -1.756178 2.128758 -6.103872 -2.210635 0.398096 5.195011 -1.304525 -18.576936 -3.851826 7.513442 19.452337 -78.819326 -4.345879 11.442251 -5.729764 -15.630433 -8.530145 4.423124 -3.139359 4.795433 -0.914558 -2.404642 -77.963055 -76.660088 85.559559 13.268546 -12.426867 -1.797825 -13.513983 -34.141955 2.568147 7.749185 81.375132 2.710807 -1.621633 -7.852051 -1.343001 -0.120166 -2.860225 2.075275 -12.904218 -44.476058 9.442629 175.870073 77.889668 170.937137 -2.494823 -19.319046 3.584809 0.002434 0.005771 -0.001432
-16.192241 51.167171 26.739163 -174.949753 -34.963374 -10.548864 -0.269633 13.855399 3.003018 -0.266707 7.948992 1.732513 -0.288028 9.974992 2.201858 -0.278017 7.910718 1.696813 1.648617 18.605115 -1.748653 2.131344 -6.086894 -2.261177 0.393142 5.175179 -1.316830 -18.604320 -3.862336 7.516059 18.405976 -78.798881 -3.295104 11.403757 -5.920009 -15.517705 -8.528856 4.412218 -3.127626 4.796703 -0.930523 -2.425998 -77.918990 -76.662498 85.514310 13.268606 -12.440618 -1.738205 -13.411864 -33.920587 2.335852 7.800943 81.541291 2.785145 -1.693271 -7.492793 -1.724385 -0.124712 -2.927706 2.052843 -12.877315 -44.521899 9.459489 175.854415 77.897158 170.933310 -2.503822 -19.301102 3.581300 -0.003049 0.007350 -0.000203
-16.181082 51.158647 26.757562 -174.984957 -34.945558 -10.524515 -0.257252 13.865424 3.011308 -0.264806 7.975476 1.760787 -0.278725 9.953093 2.195037 -0.256806 7.945223 1.738803 1.599825 18.545339 -1.825677 2.134742 -6.069067 -2.270486 0.374059 5.108876 -1.364400 -18.635950 -3.885824 7.496717 17.083541 -78.781339 -1.968021 11.343841 -6.124893 -15.404625 -8.560311 4.335619 -3.122801 4.798198 -0.938880 -2.476709 -77.857654 -76.677247 85.457360 13.268104 -12.444710 -1.685856 -13.356889 -33.669951 2.113132 7.632338 81.672021 2.623955 -1.751923 -7.171160 -2.032699 -0.128095 -2.934392 1.961565 -12.850816 -44.558341 9.471700 175.811129 77.905718 170.905204 -2.513508 -19.280077 3.568751 -0.006637 0.009124 0.001445
-16.170258 51.149211 26.779393 -175.020930 -34.935707 -10.501672 -0.247148 13.881399 3.020092 -0.259375 7.983688 1.779224 -0.268679 9.941285 2.189791 -0.260821 7.928674 1.721353 1.630887 18.643271 -1.796244 2.119697 -6.059650 -2.311724 0.399968 5.111434 -1.322952 -18.665426 -3.933029 7.454166 15.530305 -78.754580 -0.420297 11.268251 -6.332797 -15.302566 -8.563815 4.328865 -3.099916 4.794876 -0.954273 -2.481927 -77.721477 -76.698927 85.333727 13.272797 -12.429446 -1.646374 -13.352970 -33.408401 1.900859 7.297704 81.780950 2.280272 -1.795471 -6.862665 -2.238880 -0.130100 -2.910779 1.792552 -12.822930 -44.590147 9.485350 175.714562 77.913622 170.828195 -2.533301 -19.254744 3.547937 -0.008256 0.010873 0.007192
-16.158617 51.138991 26.804177 -175.059702 -34.937394 -10.485742 -0.245645 13.920186 3.051992 -0.238958 7.964197 1.767410 -0.262197 9.928149 2.177316 -0.245359 7.959376 1.760484 1.628296 18.705042 -1.809629 2.111242 -6.002704 -2.343841 0.404695 5.082812 -1.334540 -18.677193 -3.981136 7.425441 13.875406 -78.717082 1.215785 11.183722 -6.529096 -15.219908 -8.583386 4.284652 -3.128352 4.788098 -0.973589 -2.467699 -77.561117 -76.717325 85.177304 13.275475 -12.427433 -1.634430 -13.387182 -33.148953 1.702730 6.811485 81.883720 1.776849 -1.815921 -6.544003 -2.338849 -0.149153 -3.208160 1.941502 -12.796090 -44.612530 9.513982 175.704442 77.922998 170.836925 -2.539400 -19.227247 3.523434 -0.007586 0.012078 0.011267
-16.146026 51.127810 26.831635 -175.097622 -34.950531 -10.478885 -0.240211 13.955450 3.086632 -0.214258 7.945133 1.747566 -0.255575 9.956753 2.215373 -0.214486 7.996764 1.820171 1.584018 18.734526 -1.881159 2.100370 -5.935539 -2.370020 0.374760 5.015676 -1.413540 -18.683130 -4.005610 7.407948 12.308754 -78.693347 2.768586 11.103156 -6.695921 -15.158994 -8.621822 4.202671 -3.169552 4.775798 -1.002444 -2.484119 -77.337012 -76.730419 84.958388 13.232823 -12.351828 -1.637176 -13.445544 -32.912107 1.511645 6.300429 82.012737 1.243507 -1.780362 -6.229861 -2.302728 -0.200679 -4.119094 2.696342 -12.774440 -44.624174 9.552990 175.691730 77.935576 170.846872 -2.547118 -19.192420 3.502222 -0.007612 0.011764 0.009682
-16.136947 51.112518 26.864727 -175.128059 -34.948469 -10.455837 -0.238872 13.963622 3.094249 -0.203546 7.958088 1.764662 -0.242721 9.964643 2.229911 -0.191878 8.019371 1.853128 1.552929 18.799970 -1.925242 2.086195 -5.851062 -2.396318 0.337289 4.959718 -1.485227 -18.674937 -4.022048 7.402113 10.943097 -78.672111 4.117625 11.034811 -6.828347 -15.114912 -8.642136 4.159045 -3.117644 4.748595 -1.052761 -2.569486 -76.992965 -76.713880 84.602593 13.206705 -12.299052 -1.667889 -13.498391 -32.672640 1.272518 5.811724 82.093851 0.712200 -1.662148 -6.117086 -1.862625 -0.243109 -5.046963 3.294651 -12.736803 -44.670116 9.551834 175.289938 77.932798 170.470337 -2.520322 -19.142260 3.445521 -0.013288 0.001460 0.013828
